<svg width="20" height="20" viewBox="0 0 20 20" fill="none" xmlns="http://www.w3.org/2000/svg">
    <path d="M8.5 5.5C8.5 5.22386 8.27614 5 8 5H6.5C5.67157 5 5 5.67157 5 6.5V8C5 8.27614 5.22386 8.5 5.5 8.5C5.77614 8.5 6 8.27614 6 8V6.5C6 6.22386 6.22386 6 6.5 6H8C8.27614 6 8.5 5.77614 8.5 5.5Z" fill="currentColor"/>
    <path d="M12 5C11.7239 5 11.5 5.22386 11.5 5.5C11.5 5.77614 11.7239 6 12 6H13.5C13.7761 6 14 6.22386 14 6.5V8C14 8.27614 14.2239 8.5 14.5 8.5C14.7761 8.5 15 8.27614 15 8V6.5C15 5.67157 14.3284 5 13.5 5H12Z" fill="currentColor"/>
    <path d="M12 15C11.7239 15 11.5 14.7761 11.5 14.5C11.5 14.2239 11.7239 14 12 14H13.5C13.7761 14 14 13.7761 14 13.5V12C14 11.7239 14.2239 11.5 14.5 11.5C14.7761 11.5 15 11.7239 15 12V13.5C15 14.3284 14.3284 15 13.5 15H12Z" fill="currentColor"/>
    <path d="M8 15C8.27614 15 8.5 14.7761 8.5 14.5C8.5 14.2239 8.27614 14 8 14H6.5C6.22386 14 6 13.7761 6 13.5V12C6 11.7239 5.77614 11.5 5.5 11.5C5.22386 11.5 5 11.7239 5 12V13.5C5 14.3284 5.67157 15 6.5 15H8Z" fill="currentColor"/>
</svg>
