<svg  width="24" height="24" viewBox="0 0 24 24" fill="none" xmlns="http://www.w3.org/2000/svg">
    <path fill-rule="evenodd" clip-rule="evenodd" d="M9.64601 11.146C9.69245 11.0995 9.74763 11.0625 9.80838 11.0373C9.86912 11.0121 9.93424 10.9991 10 10.9991C10.0658 10.9991 10.1309 11.0121 10.1916 11.0373C10.2524 11.0625 10.3076 11.0995 10.354 11.146L12 12.793L13.646 11.146C13.6925 11.0996 13.7477 11.0627 13.8084 11.0375C13.8692 11.0124 13.9343 10.9994 14 10.9994C14.0658 10.9994 14.1309 11.0124 14.1916 11.0375C14.2523 11.0627 14.3075 11.0996 14.354 11.146C14.4005 11.1925 14.4374 11.2477 14.4625 11.3085C14.4877 11.3692 14.5006 11.4343 14.5006 11.5C14.5006 11.5658 14.4877 11.6309 14.4625 11.6916C14.4374 11.7524 14.4005 11.8076 14.354 11.854L12.354 13.854C12.3076 13.9006 12.2524 13.9375 12.1916 13.9628C12.1309 13.988 12.0658 14.0009 12 14.0009C11.9342 14.0009 11.8691 13.988 11.8084 13.9628C11.7476 13.9375 11.6925 13.9006 11.646 13.854L9.64601 11.854C9.59945 11.8076 9.5625 11.7524 9.5373 11.6917C9.51209 11.6309 9.49911 11.5658 9.49911 11.5C9.49911 11.4343 9.51209 11.3692 9.5373 11.3084C9.5625 11.2477 9.59945 11.1925 9.64601 11.146Z" fill="black"/>
</svg>