<svg xmlns="http://www.w3.org/2000/svg" width="20" height="20" viewBox="0 0 20 20" fill="none">
    <path fill-rule="evenodd" clip-rule="evenodd" d="M6 5H14C14.2652 5 14.5196 5.10536 14.7071 5.29289C14.8946 5.48043 15 5.73478 15 6V14C15 14.2652 14.8946 14.5196 14.7071 14.7071C14.5196 14.8946 14.2652 15 14 15H6C5.73478 15 5.48043 14.8946 5.29289 14.7071C5.10536 14.5196 5 14.2652 5 14V6C5 5.73478 5.10536 5.48043 5.29289 5.29289C5.48043 5.10536 5.73478 5 6 5ZM4 6C4 5.46957 4.21071 4.96086 4.58579 4.58579C4.96086 4.21071 5.46957 4 6 4H14C14.5304 4 15.0391 4.21071 15.4142 4.58579C15.7893 4.96086 16 5.46957 16 6V14C16 14.5304 15.7893 15.0391 15.4142 15.4142C15.0391 15.7893 14.5304 16 14 16H6C5.46957 16 4.96086 15.7893 4.58579 15.4142C4.21071 15.0391 4 14.5304 4 14V6ZM13 7.5C13.1326 7.5 13.2598 7.44732 13.3536 7.35355C13.4473 7.25979 13.5 7.13261 13.5 7C13.5 6.86739 13.4473 6.74021 13.3536 6.64645C13.2598 6.55268 13.1326 6.5 13 6.5C12.8674 6.5 12.7402 6.55268 12.6464 6.64645C12.5527 6.74021 12.5 6.86739 12.5 7C12.5 7.13261 12.5527 7.25979 12.6464 7.35355C12.7402 7.44732 12.8674 7.5 13 7.5ZM11.5 9C11.5 9.13261 11.4473 9.25979 11.3536 9.35355C11.2598 9.44732 11.1326 9.5 11 9.5C10.8674 9.5 10.7402 9.44732 10.6464 9.35355C10.5527 9.25979 10.5 9.13261 10.5 9C10.5 8.86739 10.5527 8.74021 10.6464 8.64645C10.7402 8.55268 10.8674 8.5 11 8.5C11.1326 8.5 11.2598 8.55268 11.3536 8.64645C11.4473 8.74021 11.5 8.86739 11.5 9ZM9.5 11C9.5 11.1326 9.44732 11.2598 9.35355 11.3536C9.25979 11.4473 9.13261 11.5 9 11.5C8.86739 11.5 8.74021 11.4473 8.64645 11.3536C8.55268 11.2598 8.5 11.1326 8.5 11C8.5 10.8674 8.55268 10.74021 8.64645 10.6464C8.74021 10.5527 8.86739 10.5 9 10.5C9.13261 10.5 9.25979 10.5527 9.35355 10.6464C9.44732 10.7402 9.5 10.8674 9.5 11ZM7.5 13C7.5 13.1326 7.44732 13.2598 7.35355 13.3536C7.25979 13.4473 7.13261 13.5 7 13.5C6.86739 13.5 6.74021 13.4473 6.64645 13.3536C6.55268 13.2598 6.5 13.1326 6.5 13C6.5 12.8674 6.55268 12.7402 6.64645 12.6464C6.74021 12.5527 6.86739 12.5 7 12.5C7.13261 12.5 7.25979 12.5527 7.35355 12.6464C7.44732 12.7402 7.5 12.8674 7.5 13ZM9 13.5C9.13261 13.5 9.25979 13.4473 9.35355 13.3536C9.44732 13.2598 9.5 13.1326 9.5 13C9.5 12.8674 9.44732 12.7402 9.35355 12.6464C9.25979 12.5527 9.13261 12.5 9 12.5C8.86739 12.5 8.74021 12.5527 8.64645 12.6464C8.55268 12.7402 8.5 12.8674 8.5 13C8.5 13.1326 8.55268 13.2598 8.64645 13.3536C8.74021 13.4473 8.86739 13.5 9 13.5ZM11 11.5C11.1326 11.5 11.2598 11.4473 11.3536 11.3536C11.4473 11.2598 11.5 11.1326 11.5 11C11.5 10.8674 11.4473 10.7402 11.3536 10.6464C11.2598 10.5527 11.1326 10.5 11 10.5C10.8674 10.5 10.7402 10.5527 10.6464 10.6464C10.5527 10.7402 10.5 10.8674 10.5 11C10.5 11.1326 10.5527 11.2598 10.6464 11.3536C10.7402 11.4473 10.8674 11.5 11 11.5ZM11.5 13C11.5 13.1326 11.4473 13.2598 11.3536 13.3536C11.2598 13.4473 11.1326 13.5 11 13.5C10.8674 13.5 10.7402 13.4473 10.6464 13.3536C10.5527 13.2598 10.5 13.1326 10.5 13Z" fill="currentColor" />
</svg>