<svg width="20" height="20" viewBox="0 0 20 20" fill="none" xmlns="http://www.w3.org/2000/svg">
    <path d="M5.85357 6.81311C5.94734 6.90688 6.00002 7.03406 6.00002 7.16667L6.00002 12.8333C6.00002 12.9659 5.94734 13.0931 5.85357 13.1869C5.7598 13.2807 5.63262 13.3333 5.50002 13.3333C5.36741 13.3333 5.24023 13.2807 5.14646 13.1869C5.05269 13.0931 5.00002 12.9659 5.00002 12.8333L5.00002 7.16667C5.00002 7.03406 5.05269 6.90688 5.14646 6.81311C5.24023 6.71935 5.36741 6.66667 5.50002 6.66667C5.63262 6.66667 5.7598 6.71935 5.85357 6.81311Z" fill="currentColor"/>
    <path d="M14.8536 6.81311C14.7598 6.71935 14.6326 6.66667 14.5 6.66667C14.3674 6.66667 14.2402 6.71935 14.1465 6.81311C14.0527 6.90688 14 7.03406 14 7.16667V12.8333C14 12.9659 14.0527 13.0931 14.1465 13.1869C14.2402 13.2807 14.3674 13.3333 14.5 13.3333C14.6326 13.3333 14.7598 13.2807 14.8536 13.1869C14.9473 13.0931 15 12.9659 15 12.8333V7.16667C15 7.03406 14.9473 6.90688 14.8536 6.81311Z" fill="currentColor"/>
    <path fill-rule="evenodd" clip-rule="evenodd" d="M11.7071 8.29289C11.8947 8.48043 12 8.73478 12 9V11C12 11.2652 11.8947 11.5196 11.7071 11.7071C11.5196 11.8946 11.2652 12 11 12H9.00002C8.7348 12 8.48045 11.8946 8.29291 11.7071C8.10537 11.5196 8.00002 11.2652 8.00002 11L8.00002 9C8.00002 8.73478 8.10537 8.48043 8.29291 8.29289C8.48045 8.10536 8.7348 8 9.00002 8H11C11.2652 8 11.5196 8.10536 11.7071 8.29289ZM11 9V11H9.00002V9H11Z" fill="currentColor"/>
    <path d="M13.1869 5.85355C13.0931 5.94732 12.966 6 12.8333 6L7.16668 6C7.03407 6 6.9069 5.94732 6.81313 5.85355C6.71936 5.75979 6.66668 5.63261 6.66668 5.5C6.66668 5.36739 6.71936 5.24021 6.81313 5.14645C6.9069 5.05268 7.03407 5 7.16668 5L12.8333 5C12.966 5 13.0931 5.05268 13.1869 5.14645C13.2807 5.24021 13.3334 5.36739 13.3334 5.5C13.3334 5.63261 13.2807 5.75979 13.1869 5.85355Z" fill="currentColor"/>
    <path d="M13.1869 14.8536C13.2807 14.7598 13.3334 14.6326 13.3334 14.5C13.3334 14.3674 13.2807 14.2402 13.1869 14.1464C13.0931 14.0527 12.966 14 12.8334 14L7.16668 14C7.03407 14 6.9069 14.0527 6.81313 14.1464C6.71936 14.2402 6.66668 14.3674 6.66668 14.5C6.66668 14.6326 6.71936 14.7598 6.81313 14.8536C6.9069 14.9473 7.03407 15 7.16668 15L12.8334 15C12.966 15 13.0931 14.9473 13.1869 14.8536Z" fill="currentColor"/>
</svg>
