<svg width="20" height="20" viewBox="0 0 20 20" fill="none" xmlns="http://www.w3.org/2000/svg">
    <path fill-rule="evenodd" clip-rule="evenodd" d="M5.5 14C5.36739 14 5.24021 14.0527 5.14645 14.1464C5.05268 14.2402 5 14.3674 5 14.5C5 14.6326 5.05268 14.7598 5.14645 14.8536C5.24021 14.9473 5.36739 15 5.5 15H14.5C14.6326 15 14.7598 14.9473 14.8536 14.8536C14.9473 14.7598 15 14.6326 15 14.5C15 14.3674 14.9473 14.2402 14.8536 14.1464C14.7598 14.0527 14.6326 14 14.5 14H5.5ZM5 5.5C5 5.36739 5.05268 5.24021 5.14645 5.14645C5.24021 5.05268 5.36739 5 5.5 5H14.5C14.6326 5 14.7598 5.05268 14.8536 5.14645C14.9473 5.24021 15 5.36739 15 5.5C15 5.63261 14.9473 5.75979 14.8536 5.85355C14.7598 5.94732 14.6326 6 14.5 6H5.5C5.36739 6 5.24021 5.94732 5.14645 5.85355C5.05268 5.75979 5 5.63261 5 5.5ZM11 9H9V11H11V9ZM9 8C8.73478 8 8.48043 8.10536 8.29289 8.29289C8.10536 8.48043 8 8.73478 8 9V11C8 11.2652 8.10536 11.5196 8.29289 11.7071C8.48043 11.8946 8.73478 12 9 12H11C11.2652 12 11.5196 11.8946 11.7071 11.7071C11.8946 11.5196 12 11.2652 12 11V9C12 8.73478 11.8946 8.48043 11.7071 8.29289C11.5196 8.10536 11.2652 8 11 8H9Z" fill="currentColor"/>
</svg>
