<svg width="20" height="20" viewBox="0 0 20 20" fill="none" xmlns="http://www.w3.org/2000/svg">
    <path fill-rule="evenodd" clip-rule="evenodd" d="M5.93369 6.56631C5.93369 6.43371 5.88101 6.30653 5.78724 6.21276C5.69347 6.11899 5.56629 6.06631 5.43369 6.06631C5.30108 6.06631 5.1739 6.11899 5.08013 6.21276C4.98636 6.30653 4.93369 6.43371 4.93369 6.56631L4.93369 13.4337C4.93369 13.5663 4.98636 13.6935 5.08013 13.7873C5.1739 13.881 5.30108 13.9337 5.43369 13.9337C5.56629 13.9337 5.69347 13.881 5.78724 13.7873C5.88101 13.6935 5.93369 13.5663 5.93369 13.4337L5.93369 6.56631ZM14.4337 6.06632C14.5663 6.06632 14.6935 6.11899 14.7872 6.21276C14.881 6.30653 14.9337 6.43371 14.9337 6.56632L14.9337 13.4337C14.9337 13.5663 14.881 13.6935 14.7872 13.7873C14.6935 13.881 14.5663 13.9337 14.4337 13.9337C14.3011 13.9337 14.1739 13.881 14.0801 13.7873C13.9864 13.6935 13.9337 13.5663 13.9337 13.4337L13.9337 6.56632C13.9337 6.43371 13.9864 6.30653 14.0801 6.21276C14.1739 6.11899 14.3011 6.06632 14.4337 6.06632ZM10.9337 11.0663V9.06631H8.93369L8.93368 11.0663L10.9337 11.0663ZM11.9337 9.06631C11.9337 8.8011 11.8283 8.54674 11.6408 8.35921C11.4533 8.17167 11.1989 8.06631 10.9337 8.06631L8.93369 8.06631C8.66847 8.06631 8.41411 8.17167 8.22658 8.35921C8.03904 8.54674 7.93369 8.8011 7.93369 9.06631L7.93368 11.0663C7.93368 11.3315 8.03904 11.5859 8.22658 11.7734C8.41411 11.961 8.66847 12.0663 8.93368 12.0663L10.9337 12.0663C11.1989 12.0663 11.4533 11.961 11.6408 11.7734C11.8283 11.5859 11.9337 11.3315 11.9337 11.0663V9.06631Z" fill="currentColor"/>
</svg>
