<svg width="20" height="20" viewBox="0 0 20 20" fill="none" xmlns="http://www.w3.org/2000/svg">
    <path fill-rule="evenodd" clip-rule="evenodd" d="M6.24999 5.83334C6.3605 5.83334 6.46648 5.87724 6.54462 5.95538C6.62276 6.03352 6.66666 6.1395 6.66666 6.25001V6.45834C6.66666 6.57334 6.75999 6.66668 6.87499 6.66668H12.2917C12.3469 6.66668 12.3999 6.64473 12.439 6.60566C12.478 6.56659 12.5 6.5136 12.5 6.45834V6.25001C12.5 6.1395 12.5439 6.03352 12.622 5.95538C12.7002 5.87724 12.8062 5.83334 12.9167 5.83334C13.0272 5.83334 13.1331 5.87724 13.2113 5.95538C13.2894 6.03352 13.3333 6.1395 13.3333 6.25001V6.45834C13.3333 7.03334 12.8667 7.50001 12.2917 7.50001H6.87499C6.29999 7.50001 5.83333 7.03334 5.83333 6.45834V6.25001C5.83333 6.1395 5.87723 6.03352 5.95537 5.95538C6.03351 5.87724 6.13949 5.83334 6.24999 5.83334ZM6.87499 12.5C6.81974 12.5 6.76675 12.522 6.72768 12.561C6.68861 12.6001 6.66666 12.6531 6.66666 12.7083V12.9167C6.66666 13.0272 6.62276 13.1332 6.54462 13.2113C6.46648 13.2894 6.3605 13.3333 6.24999 13.3333C6.13949 13.3333 6.03351 13.2894 5.95537 13.2113C5.87723 13.1332 5.83333 13.0272 5.83333 12.9167V12.7083C5.83333 12.1333 6.29999 11.6667 6.87499 11.6667H12.2917C12.8667 11.6667 13.3333 12.1333 13.3333 12.7083V12.9167C13.3333 13.0272 13.2894 13.1332 13.2113 13.2113C13.1331 13.2894 13.0272 13.3333 12.9167 13.3333C12.8062 13.3333 12.7002 13.2894 12.622 13.2113C12.5439 13.1332 12.5 13.0272 12.5 12.9167V12.7083C12.5 12.6531 12.478 12.6001 12.439 12.561C12.3999 12.522 12.3469 12.5 12.2917 12.5H6.87499ZM7.91666 9.16668C7.80615 9.16668 7.70017 9.21058 7.62203 9.28872C7.54389 9.36686 7.49999 9.47284 7.49999 9.58334C7.49999 9.69385 7.54389 9.79983 7.62203 9.87797C7.70017 9.95611 7.80615 10 7.91666 10H11.25C11.3605 10 11.4665 9.95611 11.5446 9.87797C11.6228 9.79983 11.6667 9.69385 11.6667 9.58334C11.6667 9.47284 11.6228 9.36686 11.5446 9.28872C11.4665 9.21058 11.3605 9.16668 11.25 9.16668H7.91666Z" fill="black"/>
</svg>
