<svg xmlns="http://www.w3.org/2000/svg" width="20" height="20" viewBox="0 0 20 20" fill="none">
    <path fill-rule="evenodd" clip-rule="evenodd" d="M4 4.5C4 4.36739 4.05268 4.24021 4.14645 4.14645C4.24021 4.05268 4.36739 4 4.5 4H15.5C15.6326 4 15.7598 4.05268 15.8536 4.14645C15.9473 4.24021 16 4.36739 16 4.5C16 4.63261 15.9473 4.75979 15.8536 4.85355C15.7598 4.94732 15.6326 5 15.5 5H4.5C4.36739 5 4.24021 4.94732 4.14645 4.85355C4.05268 4.75979 4 4.63261 4 4.5ZM5 8V9H15V8H5ZM4.75 7C4.55109 7 4.36032 7.07902 4.21967 7.21967C4.07902 7.36032 4 7.55109 4 7.75V9.25C4 9.664 4.336 10 4.75 10H15.25C15.4489 10 15.6397 9.92098 15.7803 9.78033C15.921 9.63968 16 9.44891 16 9.25V7.75C16 7.55109 15.921 7.36032 15.7803 7.21967C15.6397 7.07902 15.4489 7 15.25 7H4.75ZM5 15V13H15V15H5ZM4 12.75C4 12.5511 4.07902 12.3603 4.21967 12.2197C4.36032 12.079 4.55109 12 4.75 12H15.25C15.4489 12 15.6397 12.079 15.7803 12.2197C15.921 12.3603 16 12.5511 16 12.75V15.25C16 15.4489 15.921 15.6397 15.7803 15.7803C15.6397 15.921 15.4489 16 15.25 16H4.75C4.55109 16 4.36032 15.921 4.21967 15.7803C4.07902 15.6397 4 15.4489 4 15.25V12.75Z" fill="currentColor" />
</svg>